<?xml version="1.0" standalone="no"?>
<!DOCTYPE svg PUBLIC "-//W3C//DTD SVG 20010904//EN"
 "http://www.w3.org/TR/2001/REC-SVG-20010904/DTD/svg10.dtd">
<svg version="1.0" xmlns="http://www.w3.org/2000/svg"
 width="558.000000pt" height="558.000000pt" viewBox="0 0 558.000000 558.000000"
 preserveAspectRatio="xMidYMid meet">
<metadata>
Created by potrace 1.11, written by Peter Selinger 2001-2013
</metadata>
<g transform="translate(0.000000,558.000000) scale(0.100000,-0.100000)"
fill="#000000" stroke="none">
<path d="M2670 4239 c-25 -3 -65 -9 -90 -12 -25 -3 -60 -11 -78 -16 -18 -5
-33 -10 -35 -9 -6 1 -93 -25 -102 -30 -5 -4 -15 -7 -21 -8 -29 -5 -177 -81
-253 -130 -98 -65 -274 -237 -338 -332 -67 -98 -162 -304 -178 -385 -3 -10 -6
-26 -9 -35 -6 -20 -13 -58 -25 -144 -10 -63 -7 -277 4 -333 20 -105 29 -142
50 -208 25 -81 93 -230 106 -235 5 -2 9 -8 9 -14 0 -9 57 -98 70 -108 3 -3 17
-20 30 -39 61 -87 239 -240 353 -303 211 -116 408 -166 639 -163 73 1 144 5
158 8 14 3 42 8 62 11 52 8 162 40 228 66 64 25 193 89 200 100 3 4 19 14 35
23 17 8 41 25 55 37 14 12 40 34 59 48 42 34 129 124 171 177 17 22 37 48 45
57 57 69 139 242 181 381 76 255 59 581 -43 817 -54 124 -122 241 -183 315
-58 70 -202 204 -266 247 -63 42 -228 133 -247 135 -4 1 -42 13 -85 26 -163
53 -369 76 -502 56z"/>
</g>
</svg>
