<svg height="576pt" viewBox="-18 -18 576 576" width="576pt" xmlns="http://www.w3.org/2000/svg"><path d="m285.25 485.878906 11.210938-2.796875-5.609376-14.023437zm0 0"/><path d="m280 540h50v-60c-.039062-14.609375-10.59375-27.066406-25-29.5l14.320312 35.789062c1.070313 2.679688.929688 5.695313-.382812 8.261719-1.316406 2.574219-3.679688 4.449219-6.476562 5.152344l-32.460938 8.105469zm0 0"/><path d="m210 540h50v-32.191406l-32.429688-8.105469c-2.800781-.703125-5.164062-2.578125-6.476562-5.152344-1.3125-2.566406-1.453125-5.582031-.386719-8.261719l14.292969-35.789062c-14.40625 2.433594-24.960938 14.890625-25 29.5zm0 0"/><path d="m276.128906 450h-12.257812l6.128906 18.378906zm0 0"/><path d="m243.539062 483.082031 11.210938 2.796875-5.601562-16.820312zm0 0"/><path d="m300 385.460938c-7.523438-3.335938-14.5625-7.671876-20.917969-12.902344-12.519531 5.792968-25.621093 10.21875-39.082031 13.214844v14.226562c0 16.566406 13.433594 30 30 30s30-13.433594 30-30zm0 0"/><path d="m270 340c-17.105469.019531-32.308594 10.894531-37.859375 27.070312 14.246094-2.570312 28.007813-7.339843 40.789063-14.140624 3.90625-3.898438 10.226562-3.898438 14.132812 0 6.101562 5.851562 13.132812 10.644531 20.808594 14.1875-5.535156-16.199219-20.753906-27.09375-37.871094-27.117188zm0 0"/><path d="m486.128906 450h-12.257812l6.128906 18.378906zm0 0"/><path d="m495.25 485.878906 11.210938-2.796875-5.609376-14.023437zm0 0"/><path d="m490 540h50v-60c-.039062-14.609375-10.59375-27.066406-25-29.5l14.320312 35.789062c1.070313 2.679688.929688 5.695313-.382812 8.261719-1.316406 2.574219-3.679688 4.449219-6.476562 5.152344l-32.460938 8.105469zm0 0"/><path d="m420 540h50v-32.191406l-32.429688-8.105469c-2.800781-.703125-5.164062-2.578125-6.476562-5.152344-1.3125-2.566406-1.453125-5.582031-.386719-8.261719l14.292969-35.789062c-14.40625 2.433594-24.960938 14.890625-25 29.5zm0 0"/><path d="m453.539062 483.082031 11.210938 2.796875-5.601562-16.820312zm0 0"/><path d="m510 385.460938c-7.523438-3.335938-14.5625-7.671876-20.917969-12.902344-12.519531 5.792968-25.621093 10.21875-39.082031 13.214844v14.226562c0 16.566406 13.433594 30 30 30s30-13.433594 30-30zm0 0"/><path d="m480 340c-17.105469.019531-32.308594 10.894531-37.859375 27.070312 14.246094-2.570312 28.007813-7.339843 40.789063-14.140624 3.90625-3.898438 10.226562-3.898438 14.132812 0 6.101562 5.851562 13.132812 10.644531 20.808594 14.1875-5.535156-16.199219-20.753906-27.09375-37.871094-27.117188zm0 0"/><path d="m70 540h50v-60c-.039062-14.609375-10.59375-27.066406-25-29.5l14.320312 35.789062c1.070313 2.679688.929688 5.695313-.382812 8.261719-1.316406 2.574219-3.679688 4.449219-6.476562 5.152344l-32.460938 8.105469zm0 0"/><path d="m66.128906 450h-12.257812l6.128906 18.378906zm0 0"/><path d="m75.25 485.878906 11.210938-2.796875-5.609376-14.023437zm0 0"/><path d="m33.539062 483.082031 11.210938 2.796875-5.601562-16.820312zm0 0"/><path d="m0 540h50v-32.191406l-32.429688-8.105469c-2.800781-.703125-5.164062-2.578125-6.476562-5.152344-1.3125-2.566406-1.453125-5.582031-.386719-8.261719l14.292969-35.789062c-14.40625 2.433594-24.9609375 14.890625-25 29.5zm0 0"/><path d="m90 385.460938c-7.523438-3.335938-14.5625-7.671876-20.917969-12.902344-12.519531 5.792968-25.621093 10.21875-39.082031 13.214844v14.226562c0 16.566406 13.433594 30 30 30s30-13.433594 30-30zm0 0"/><path d="m60 340c-17.105469.019531-32.308594 10.894531-37.859375 27.070312 14.246094-2.570312 28.007813-7.339843 40.789063-14.140624 3.90625-3.898438 10.226562-3.898438 14.132812 0 6.101562 5.851562 13.132812 10.644531 20.808594 14.1875-5.535156-16.199219-20.753906-27.09375-37.871094-27.117188zm0 0"/><path d="m70 280h190v20h20v-20h190v20h20v-20c0-11.046875-8.953125-20-20-20h-190v-20h-20v20h-190c-11.046875 0-20 8.953125-20 20v20h20zm0 0"/><path d="m420 150v-90h-300v140h300zm-240 30h-30c-5.523438 0-10-4.476562-10-10v-30h20v20h20zm0-80h-20v20h-20v-30c0-5.523438 4.476562-10 10-10h30zm90 80c-27.613281 0-50-22.386719-50-50s22.386719-50 50-50 50 22.386719 50 50c-.035156 27.601562-22.398438 49.964844-50 50zm130-10c0 5.523438-4.476562 10-10 10h-30v-20h20v-20h20zm0-50h-20v-20h-20v-20h30c5.523438 0 10 4.476562 10 10zm0 0"/><path d="m120 30h300v10h-300zm0 0"/><path d="m300 130c0 16.566406-13.433594 30-30 30s-30-13.433594-30-30 13.433594-30 30-30 30 13.433594 30 30zm0 0"/><path d="m120 0h300v10h-300zm0 0"/></svg>